<svg xmlns="http://www.w3.org/2000/svg" xmlns:xlink="http://www.w3.org/1999/xlink" id="Calque_1" x="0" y="0" version="1.1" viewBox="0 0 375 50" xml:space="preserve" style="enable-background:new 0 0 375 50"><style type="text/css">.st0{fill:#ff0}.st1{fill:#ffe600}.st2{fill:#f38300}.st3{fill:#f39b00}.st4{fill:#f3b100}</style><g><path d="M0,0v34.5c9.2,5.8,24.9,10,47,12.6C76,49,98,0,81.2,0H0z" class="st0"/><path d="M81.2,0C78.7,19.7,65.6,36.7,47,47.1c13.8,1.6,30.2,2.5,49,2.8C135,49,143,0,128.4,0H81.2z" class="st1"/><path d="M161.8,0h-33.3c-2.6,20.2-14.7,38-32.4,49.9c4.3,0.1,8.8,0.1,13.3,0.1h86.5C208,50,181,0,161.8,0" class="st2"/><path d="M198.8,0h-37.1c1.9,20.8,15,38.9,34.1,50h34.9C249,50,222,0,198.8,0" class="st3"/><path d="M308.9,0h-110c3.5,19.8,15.2,37.4,32,50h8.2h27.7h8c0,0,0,0,0.1,0C304,50,325,0,308.9,0" class="st4"/><path d="M338.8,0h-29.9c-2,20.8-15.1,38.9-34.2,50c25.2-0.2,46.1-1.6,62.6-4.1C357,41,351,0,338.8,0" class="st4"/><path d="M338.8,0c-3.7,7.6-5.7,15.9-5.7,24.6c0,7.5,1.5,14.6,4.3,21.3c16.2-2.4,28.3-6,36.2-10.5 c0.5-0.3,0.9-0.5,1.4-0.8v-0.9V0H338.8z" class="st3"/></g></svg>