<svg xmlns="http://www.w3.org/2000/svg" xmlns:xlink="http://www.w3.org/1999/xlink" width="202" height="202" x="0" y="0" version="1.1" viewBox="0 0 202 202" xml:space="preserve" style="enable-background:new 0 0 202 202"><style type="text/css">.st0{filter:url(#Adobe_OpacityMaskFilter)}.st1{opacity:0;mask:url(#SVGID_1_)}.st2{display:none;fill:#e9ebed}.st3{fill:#6d737a}</style><g id="Calque_1"><defs><filter id="Adobe_OpacityMaskFilter" width="202" height="202" x="0" y="0" filterUnits="userSpaceOnUse"><feColorMatrix type="matrix" values="1 0 0 0 0 0 1 0 0 0 0 0 1 0 0 0 0 0 1 0"/></filter></defs><mask id="SVGID_1_" width="202" height="202" x="0" y="0" maskUnits="userSpaceOnUse"><g class="st0"><rect width="202" height="202"/></g></mask><rect width="202" height="202" class="st1"/><circle cx="101" cy="101" r="101" class="st2"/></g><g id="Calque_4"><path d="M141.53957,56.87482c2.09149,0,3.78697,1.69411,3.78697,3.78389v19.95564 c0,2.08981-1.69548,3.78389-3.78697,3.78389H59.70683c-2.09147,0-3.78695-1.69408-3.78695-3.78389V60.65872 c0-2.08978,1.69548-3.78389,3.78695-3.78389H141.53957 M141.53957,53.05011H59.70683c-4.19879,0-7.61475,3.4132-7.61475,7.6086 v19.95564c0,4.1954,3.41596,7.6086,7.61475,7.6086h81.83273c4.19881,0,7.61478-3.4132,7.61478-7.6086V60.65872 C149.15434,56.46331,145.73837,53.05011,141.53957,53.05011L141.53957,53.05011z" class="st3"/><path d="M141.53957,88.60841c2.09149,0,3.78697,1.69411,3.78697,3.78389v19.95564 c0,2.0898-1.69548,3.78389-3.78697,3.78389H59.70683c-2.09147,0-3.78695-1.69409-3.78695-3.78389V92.3923 c0-2.08978,1.69548-3.78389,3.78695-3.78389H141.53957 M141.53957,84.78369H59.70683c-4.19879,0-7.61475,3.4132-7.61475,7.6086 v19.95564c0,4.1954,3.41596,7.6086,7.61475,7.6086h81.83273c4.19881,0,7.61478-3.4132,7.61478-7.6086V92.3923 C149.15434,88.19689,145.73837,84.78369,141.53957,84.78369L141.53957,84.78369z" class="st3"/><path d="M141.53957,120.34199c2.09149,0,3.78697,1.69409,3.78697,3.78389v19.95564 c0,2.0898-1.69548,3.78389-3.78697,3.78389H59.70683c-2.09147,0-3.78695-1.69409-3.78695-3.78389v-19.95564 c0-2.0898,1.69548-3.78389,3.78695-3.78389H141.53957 M141.53957,116.51728H59.70683c-4.19879,0-7.61475,3.41319-7.61475,7.6086 v19.95564c0,4.1954,3.41596,7.60861,7.61475,7.60861h81.83273c4.19881,0,7.61478-3.41321,7.61478-7.60861v-19.95564 C149.15434,119.93047,145.73837,116.51728,141.53957,116.51728L141.53957,116.51728z" class="st3"/><rect width="8.939" height="3.506" x="66.359" y="68.578" class="st3"/><rect width="8.939" height="3.506" x="66.359" y="100.452" class="st3"/><rect width="8.939" height="3.506" x="66.359" y="132.326" class="st3"/></g></svg>