<svg xmlns="http://www.w3.org/2000/svg" xmlns:xlink="http://www.w3.org/1999/xlink"><svg id="icon-web" width="24" height="24" fill="none" stroke="currentColor" stroke-linecap="round" stroke-linejoin="round" stroke-width="2" class="feather feather-globe icon_1WWsQ" viewBox="0 0 24 24"><g><circle cx="12" cy="12" r="10"/><line x1="2" x2="22" y1="12" y2="12"/><path d="M12 2a15.3 15.3 0 0 1 4 10 15.3 15.3 0 0 1-4 10 15.3 15.3 0 0 1-4-10 15.3 15.3 0 0 1 4-10z"/></g></svg><svg id="icon-news" width="24" height="24" fill="none" stroke="currentColor" stroke-linecap="round" stroke-linejoin="round" stroke-width="2" class="feather feather-file-text icon_1WWsQ" viewBox="0 0 24 24"><g><path d="M14 2H6a2 2 0 0 0-2 2v16a2 2 0 0 0 2 2h12a2 2 0 0 0 2-2V8z"/><polyline points="14 2 14 8 20 8"/><line x1="16" x2="8" y1="13" y2="13"/><line x1="16" x2="8" y1="17" y2="17"/><polyline points="10 9 9 9 8 9"/></g></svg><svg id="icon-social" width="24" height="24" fill="none" stroke="currentColor" stroke-linecap="round" stroke-linejoin="round" stroke-width="2" class="feather feather-twitter icon_1WWsQ" viewBox="0 0 24 24"><g><path d="M23 3a10.9 10.9 0 0 1-3.14 1.53 4.48 4.48 0 0 0-7.86 3v1A10.66 10.66 0 0 1 3 4s-4 9 5 13a11.64 11.64 0 0 1-7 2c9 5 20 0 20-11.5a4.5 4.5 0 0 0-.08-.83A7.72 7.72 0 0 0 23 3z"/></g></svg><svg id="icon-images" width="24" height="24" fill="none" stroke="currentColor" stroke-linecap="round" stroke-linejoin="round" stroke-width="2" class="feather feather-image icon_1WWsQ" viewBox="0 0 24 24"><g><rect width="18" height="18" x="3" y="3" rx="2" ry="2"/><circle cx="8.5" cy="8.5" r="1.5"/><polyline points="21 15 16 10 5 21"/></g></svg><svg id="icon-videos" width="24" height="24" fill="none" stroke="currentColor" stroke-linecap="round" stroke-linejoin="round" stroke-width="2" class="feather feather-video icon_1WWsQ" viewBox="0 0 24 24"><g><polygon points="23 7 16 12 23 17 23 7"/><rect width="15" height="14" x="1" y="5" rx="2" ry="2"/></g></svg><svg id="icon-shopping" width="24" height="24" fill="none" stroke="currentColor" stroke-linecap="round" stroke-linejoin="round" stroke-width="2" class="feather feather-shopping-cart icon_1WWsQ" viewBox="0 0 24 24"><g><circle cx="9" cy="21" r="1"/><circle cx="20" cy="21" r="1"/><path d="M1 1h4l2.68 13.39a2 2 0 0 0 2 1.61h9.72a2 2 0 0 0 2-1.61L23 6H6"/></g></svg><svg id="icon-music" width="24" height="24" fill="none" stroke="currentColor" stroke-linecap="round" stroke-linejoin="round" stroke-width="2" class="feather feather-music" viewBox="0 0 24 24"><path d="M9 17H5a2 2 0 0 0-2 2 2 2 0 0 0 2 2h2a2 2 0 0 0 2-2zm12-2h-4a2 2 0 0 0-2 2 2 2 0 0 0 2 2h2a2 2 0 0 0 2-2z"/><polyline points="9 17 9 5 21 3 21 15"/></svg></svg>